<?xml version="1.0" encoding="UTF-8"?><svg id="_图层_2" xmlns="http://www.w3.org/2000/svg" width="26.84mm" height="37.85mm" viewBox="0 0 76.08 107.29"><defs><style>.cls-1{fill:#1d6bb5;}.cls-2{fill:none;stroke:#1d6bb5;stroke-linecap:round;stroke-miterlimit:10;stroke-width:10px;}</style></defs><g id="_图层_1-2"><path class="cls-1" d="M51.88,81.06l-4.15-11.73H28.21l-4.08,11.73H15.5c-2.02,0-3.41-2.01-2.71-3.9L30.78,29.07h14.52l17.99,48.07c.71,1.9-.69,3.92-2.72,3.92h-8.69Zm-20.02-21.88h12.37l-6.22-17.74-6.15,17.74Z"/><path class="cls-2" d="M49.66,90.15l-11.62,10.42-11.62-10.42C12.79,77.93,5,60.48,5,42.18V15.69S38.04,5.24,38.04,5.24l33.04,10.45v26.49c0,18.31-7.79,35.75-21.42,47.97Z"/></g></svg>