<svg width="20" height="20" fill="none" xmlns="http://www.w3.org/2000/svg"><circle cx="10" cy="10" r="10" fill="#F8B300"/><mask id="a" style="mask-type:alpha" maskUnits="userSpaceOnUse" x="0" y="0" width="20" height="20"><circle cx="10" cy="10" r="10" fill="#D9D9D9"/></mask><g mask="url(#a)"><path d="M8.629 5.026a3.298 3.298 0 0 0-.527.22 4.329 4.329 0 0 1-.2.109c-.972.517-1.707 1.166-2.095 1.853-.113.2-.277.557-.341.737l-.036.102-.132.014a1.642 1.642 0 0 0-.315.081 7.249 7.249 0 0 1-.41.128c-.395.11-.48.142-.675.248-.16.086-.23.142-.44.351-.214.212-.264.274-.328.404a.68.68 0 0 0-.086.34c-.008.149 0 .22.036.364.044.176.205.54.273.614.032.035.032.041-.002.091-.207.318-.537 1.452-.633 2.17-.048.366.002.8.142 1.229.136.417.366.888.607 1.256.096.143.152.247.152.283 0 .058-.09.152-.206.21-.21.108-.579.407-.745.603-.403.475-.694 1.14-.924 2.12-.128.536-.262 1.228-.262 1.352 0 .018.034.026.106.026h.104l.078-.365c.142-.665.293-1.234.521-1.953.132-.421.433-.94.691-1.19.126-.122.56-.451.629-.48.014-.003.042.025.066.063.088.141.365.341.71.517.126.062.997.407 1.239.489.357.122.94.255 1.567.361 1.236.206 2.546.214 3.986.02.633-.084.936-.181 1.301-.417.118-.074.178-.102.21-.092.112.028.563.531.855.957.142.205.337.607.457.932.112.31.24.813.253 1.002l.012.156h.218l-.012-.126-.014-.123.256-.26c.14-.144.609-.607 1.042-1.028.82-.801 1.082-1.078 1.502-1.598.674-.834.918-1.196 1.194-1.767.243-.503.407-1.206.371-1.607-.054-.63-.286-1.428-.537-1.843-.226-.376-.447-.61-.687-.727-.092-.044-.124-.05-.244-.042-.355.026-.529.272-.527.745.002.265.052.437.238.829.27.567.305.73.24 1.134-.078.477-.573 1.455-1.009 1.99-.173.212-.79.781-1.238 1.14-.24.192-.495.376-.679.484-.215.126-.725.383-.76.383-.016 0-.04-.02-.056-.044a2.564 2.564 0 0 0-.625-.62c-.052-.033-.09-.067-.086-.077.018-.028.37-.19.669-.307.393-.156.485-.206.649-.352a1.22 1.22 0 0 1 .301-.2c.128-.06.184-.1.258-.183a.733.733 0 0 1 .136-.13c.517-.25.595-.293.758-.425.224-.182.46-.443.633-.707.152-.234.2-.341.25-.589.052-.242.048-.39-.01-.503-.046-.094-.046-.094-.01-.206a.631.631 0 0 0-.032-.43c-.05-.109-.088-.153-.182-.2-.058-.03-.1-.08-.188-.234-.297-.511-.36-.62-.44-.727a.67.67 0 0 1-.087-.134c0-.01.066-.042.146-.07.29-.108.531-.311.591-.501l.032-.098.126-.026c.07-.014.184-.058.255-.098.276-.153.352-.257.364-.503l.01-.166.074-.047c.124-.078.231-.242.212-.32a.491.491 0 0 0-.092-.14c-.086-.1-.094-.118-.106-.301a.793.793 0 0 0-.314-.561.352.352 0 0 1-.123-.176c-.04-.102-.064-.13-.162-.2a.81.81 0 0 1-.186-.183 2.201 2.201 0 0 0-.5-.492.947.947 0 0 0-.462-.173c-.25-.034-.24-.028-.254-.136a1.754 1.754 0 0 0-.098-.294 6.748 6.748 0 0 1-.12-.29c-.097-.255-.28-.512-.567-.804-.389-.393-.713-.547-1.232-.583-.505-.036-1.248.21-1.885.623-.091.06-.197.14-.235.178l-.066.07-.094-.106c-.341-.387-.988-.809-1.513-.987a1.63 1.63 0 0 0-.731-.037Zm.67.293c.276.098.722.344 1.005.553.226.168.511.46.655.671.14.204.347.585.347.635 0 .032-.006.032-.073.002a7.62 7.62 0 0 0-1.444-.465c-.487-.1-.715-.1-1.01-.004-.58.19-.875.341-1.254.647-.26.207-.418.357-.508.481l-.072.098-.013.381c-.008.21-.022.93-.03 1.6-.014 1.136-.012 1.224.02 1.291l.035.074-.075.066a2.428 2.428 0 0 0-.114.106c-.044.046-.176.302-.236.455-.022.058-.052.13-.066.164a4.326 4.326 0 0 0-.293.998c-.054.418.122 1.24.377 1.748.16.319.39.515.757.646.477.17 2.26.422 3.864.546.355.027.687.034 1.649.034 1.124-.002 1.2 0 1.172.032-.032.035-.1.063-.659.269-.44.162-.609.246-.829.407-.255.186-.455.274-.826.362-.663.154-1.632.213-2.608.16-1.326-.074-1.777-.122-2.576-.27-.79-.15-1.068-.242-1.94-.657-.396-.186-.662-.38-.713-.517-.042-.11-.042-.13-.012-.162.044-.042.13-.04.321.008.224.058.314.094.905.386.609.297.742.353 1.14.477.39.123.475.148.719.203a12.31 12.31 0 0 0 2.755.312c.719 0 1.551-.058 1.753-.122.042-.014.064-.034.064-.06 0-.05-.036-.05-.545.006-.555.06-1.919.066-2.43.01-.899-.1-1.913-.313-2.476-.525a39.653 39.653 0 0 1-.276-.102c-.18-.064-.053-.044.378.062 1.43.352 2.158.45 3.332.451.432 0 .611-.01.975-.05a22.156 22.156 0 0 0 1.651-.251c.232-.044.513-.092.629-.108.427-.062.719-.132.719-.168a.105.105 0 0 0-.02-.042c-.016-.024-.036-.024-.164.006-.08.018-.235.042-.345.054-.11.012-.318.044-.461.072-.526.098-1.638.264-2.075.308-.655.067-1.504.063-2.167-.012a19.167 19.167 0 0 1-2.284-.44c-.25-.061-.28-.066-.311-.038-.038.034-.092.04-.11.012-.014-.023-.51-.293-.899-.487-.351-.175-.473-.217-.633-.221-.115-.004-.12-.006-.163-.082a6.43 6.43 0 0 0-.22-.33c-.206-.293-.204-.29-.308-.559-.191-.501-.257-.835-.293-1.477-.022-.424.07-.915.307-1.63.138-.413.176-.507.202-.507.01 0 .09.09.18.2.361.445.519.56.926.677.33.094.571.082.571-.026 0-.042-.014-.054-.083-.072-.615-.162-.705-.204-.953-.446a6.321 6.321 0 0 1-.533-.632c-.29-.4-.411-.831-.31-1.099.072-.187.338-.465.621-.65.13-.086.204-.116.454-.186.122-.034.39-.12.595-.192.205-.07.383-.124.393-.118.024.016.128.226.198.404.034.085.096.287.136.453.055.22.083.301.107.305.06.012.084-.076.082-.287-.002-.234-.036-.364-.187-.723a2.26 2.26 0 0 1-.1-.254c0-.024.26-.537.36-.708.245-.422.67-.895 1.157-1.288.412-.332 1.278-.839 1.556-.909.133-.034.477-.01.63.044Zm3.914.216c.384.044.597.131.843.341.148.128.393.403.505.565.11.162.461.87.455.919-.004.03-.026.048-.076.06-.061.014-.093.006-.23-.058-.443-.206-.822-.27-1.377-.232-.254.018-.42.038-.869.104-.081.012-.29.058-.459.1a2.25 2.25 0 0 1-.355.074c-.052-.006-.07-.04-.194-.386a2.715 2.715 0 0 0-.3-.615c-.05-.076-.085-.143-.08-.155.017-.026.322-.204.526-.306.441-.222.867-.365 1.2-.41.186-.023.21-.023.411-.001Zm-3.56 1.318c.43.073 1.264.357 1.561.533.276.16.646.479.604.519-.006.008-.07.002-.14-.01-.342-.064-1.622.006-2.159.116-.287.06-.495.143-1.16.469-.559.273-.623.311-.613.347.006.024.024.042.04.042.04 0 .254-.096.845-.38.804-.386 1.072-.446 2.21-.498.695-.032 1.017.012 1.228.17.1.073.18.181.204.273.01.046.006.056-.026.056a.417.417 0 0 1-.11-.03 3.994 3.994 0 0 0-1.114-.144 4.726 4.726 0 0 0-1.144.084c-.789.132-2.269.663-2.704.968a.77.77 0 0 1-.128.08c-.016 0 0-1.068.018-1.316.014-.167.01-.163.278-.38.323-.262 1.028-.7 1.346-.838.253-.107.57-.127.964-.061Zm4.579.547c.215.04.357.078.523.143l.123.05.1-.052c.12-.06.258-.065.494-.02.2.038.405.16.627.37.223.214.217.223-.08.168-.236-.044-.775-.058-1.098-.03-.614.054-2.149.323-2.413.423-.081.032-.097.02-.133-.086a.55.55 0 0 0-.244-.31.8.8 0 0 1-.212-.225 4.661 4.661 0 0 0-.147-.208c-.038-.046-.044-.062-.022-.074.053-.03.84-.15 1.224-.185.213-.02 1.086.004 1.258.036Zm1.481.74c.428.022.905.186.905.312 0 .046-.042.048-.212.008-.238-.056-.635-.076-1.256-.064-.33.008-.703.026-.829.042-.539.068-.698.092-.888.132a6.013 6.013 0 0 0-.727.19c-.082.027-.164.05-.18.05-.02 0-.046-.039-.067-.102a.391.391 0 0 1-.03-.108c.015-.016.29-.092.495-.138.4-.088 1.553-.272 1.966-.312.308-.028.384-.032.51-.026.06.002.201.01.313.016Zm-4.167.328c.599.08.76.15.817.355.04.14-.01.164-.242.108-.337-.08-1.098-.132-1.893-.132-.575.002-.645.006-.819.046-.223.052-.359.104-.549.212a1.562 1.562 0 0 0-.639.611c-.071.122-.103.16-.135.16-.024 0-.202-.042-.394-.09a3.333 3.333 0 0 0-.39-.086c-.023.004-.039.022-.039.044 0 .056.307.162.619.216.285.047.305.053.615.24.228.135.515.275.565.275.012 0 .112.028.218.06.107.034.277.068.377.08.723.075.889.083 1.57.073.64-.008.698-.012.822-.052.074-.023.174-.065.22-.091.118-.068.175-.066.175.004 0 .074-.1.243-.187.321-.202.178-.362.224-.777.224-.81 0-1.819-.136-2.723-.37-.456-.117-.508-.126-.546-.08-.032.038-.012.046.47.182.67.192 1.32.306 2.016.36.446.031.47.036.47.066 0 .047-.52.34-1.057.595a4.34 4.34 0 0 0-.327.163c-.014.014-.01.032.008.054.04.05.132.028.483-.11.334-.133.567-.267.899-.517.231-.174.295-.204.447-.204.387-.002.759-.211.906-.509.058-.117.062-.136.042-.213-.012-.048-.016-.092-.008-.1a.836.836 0 0 1 .234.046c.341.092.53.123 1.218.197.265.028.962.024 1.238-.008.361-.043.485-.066.763-.14.315-.083.493-.15.679-.25.163-.093.185-.097.185-.04 0 .115-.131.29-.297.397l-.096.061-.244-.014-.245-.012.008.048c.004.04.02.05.096.058.065.008.091.02.095.046.016.082-.167.308-.31.382-.147.075-.786.245-1.17.311-.34.058-.902.086-1.447.076l-.485-.012.006.052c.004.036.022.056.056.066.168.046 1.57.002 1.973-.064.131-.02.163-.014.163.032 0 .016.016.062.034.102.026.054.074.094.186.16.304.177.545.369.705.563.074.087.134.163.134.17a.66.66 0 0 1-.104.085c-.208.148-.485.443-.7.747-.14.2-.165.215-.384.261-.687.14-1.434.152-2.566.038-.725-.072-1.498-.185-1.767-.261-.362-.098-.49-.188-.813-.563-.375-.44-.533-.573-.819-.69-.345-.139-.942-.031-1.114.202-.14.19-.162.468-.064.835.15.57.543 1.088 1.106 1.462.486.323.999.505 1.684.593.784.102 1.112.148 1.617.231 1.04.172 1.522.208 2.182.16.148-.01.244-.01.244.002 0 .044-.168.106-.4.15-.24.044-.287.044-1.4.046h-.007c-.952 0-1.22-.006-1.508-.036-.191-.018-.623-.056-.958-.084a18.101 18.101 0 0 1-1.438-.162c-.938-.133-1.276-.2-1.559-.305a1.35 1.35 0 0 1-.417-.268c-.248-.25-.54-1.208-.54-1.765 0-.32.124-.759.38-1.342.114-.26.17-.355.285-.475.09-.094.098-.108.086-.17-.042-.201-.054-.479-.042-1.034l.01-.609.102-.094c.118-.108.577-.343.937-.481a17.097 17.097 0 0 1 1.377-.451 9 9 0 0 1 1.109-.19c.201-.016.687.006.988.046Zm4.764.1c.122.022.272.058.332.082.121.046.28.171.325.261.042.08.09.296.068.308-.01.008-.102-.028-.204-.078a3.684 3.684 0 0 0-.962-.304c-.32-.044-1.1-.06-1.37-.03a3.65 3.65 0 0 0-1.617.593c-.138.096-.16.106-.17.074a1.12 1.12 0 0 0-.186-.335.412.412 0 0 1-.082-.134c0-.02.002-.036.006-.036.005 0 .094-.032.2-.07.364-.128.793-.215 1.582-.32.417-.055.663-.065 1.268-.06.487.007.627.015.81.049Zm-5.173.391c.659.04.904.07 1.05.122.182.064.242.12.327.297.118.252.134.432.056.635-.072.188-.327.356-.595.394-.513.07-1.208.106-1.208.06 0-.01.05-.074.11-.142.198-.222.28-.46.266-.775-.01-.223-.058-.353-.194-.505-.09-.102-.1-.124-.046-.108.018.006.124.016.234.022Zm4.642-.002c.679.114 1.044.268 1.384.59.08.075.094.137.04.185-.07.062-.46.285-.675.387-.28.134-.457.196-.757.26-.134.03-.262.058-.286.062-.077.018-.051-.032.074-.15a.71.71 0 0 0 .256-.541 1.07 1.07 0 0 0-.206-.695c-.107-.142-.105-.142.17-.098Zm-6.463.086a.712.712 0 0 1-.06.106c-.056.088-.086.237-.086.443 0 .186.062.391.17.58.077.13.085.167.036.145l-.256-.09c-.326-.112-.849-.36-.849-.401 0-.036.076-.17.156-.27.118-.15.332-.313.553-.423.23-.114.244-.12.304-.122.034-.002.042.006.032.032Zm.529.01c.056.06.088.152.072.204-.02.064-.11.151-.156.151-.06 0-.17-.072-.194-.127-.032-.07.03-.192.122-.236.09-.046.104-.046.156.008Zm4.538.018c.022.022.036.054.03.068a1.12 1.12 0 0 0-.03.104c-.032.113-.133.23-.197.221-.07-.008-.132-.114-.114-.193.02-.092.17-.24.245-.242.012 0 .042.018.066.042Zm-.449.022c-.062.218-.08.33-.08.525-.002.278.046.45.178.627.05.068.088.13.082.138a1.075 1.075 0 0 1-.246 0c-.61-.038-.827-.06-.974-.098-.088-.024-.18-.046-.204-.052-.056-.014-.056-.012.002-.158a1.13 1.13 0 0 0 .062-.257c.018-.168.052-.222.206-.328.225-.152.84-.437.95-.441.028 0 .034.01.024.044ZM12.01 10.49c-.012.012-.038.014-.058.006-.034-.014-.034-.016.004-.03.048-.018.082-.004.054.024Zm5.541.595c.2.114.503.473.633.744.228.48.39 1.228.392 1.793 0 .504-.114.943-.384 1.486-.27.537-1.13 1.675-1.823 2.406-.11.116-.545.553-.968.97-.424.42-.813.817-.869.883-.054.068-.106.116-.112.108a1.011 1.011 0 0 1-.038-.174c-.028-.186-.24-.834-.36-1.108a2.663 2.663 0 0 0-.16-.307.448.448 0 0 1-.075-.148c.004-.014.16-.112.346-.218a8.563 8.563 0 0 0 1.917-1.451 6.97 6.97 0 0 0 1.24-1.748c.231-.469.28-.669.261-1.094-.012-.317-.04-.41-.273-.914a5.815 5.815 0 0 1-.202-.47 1.677 1.677 0 0 1-.026-.3c0-.289.052-.404.218-.48.11-.052.163-.048.283.022Zm-2.112.507c.024.058.097.178.163.27.066.09.118.173.114.183-.004.012-.074-.028-.156-.088a3.317 3.317 0 0 0-.25-.165c-.129-.076-.259-.206-.233-.232.026-.026.266-.094.296-.082.012.004.042.056.066.114Zm-6.747.713c.265.042.493.2.798.55.484.556.591.634 1.029.744.509.127 1.74.275 2.683.323.53.026.989.002 1.45-.074.343-.056.457-.09.531-.152.028-.026.134-.153.236-.285.221-.29.539-.615.657-.673.075-.036.093-.038.135-.014a.294.294 0 0 1 .092.094c.042.068.042.072.01.171a2.047 2.047 0 0 0-.046.172c-.022.122-.078.204-.311.455-.324.356-.733.671-1.034.803-.188.082-.631.206-1.019.282-.118.024-.659.03-.908.012a9.28 9.28 0 0 1-.711-.086 11.282 11.282 0 0 1-.729-.16 10.512 10.512 0 0 0-.475-.108c-.036 0-.545-.171-.681-.23-.044-.017-.266-.127-.493-.239-.615-.307-.955-.551-1.027-.739-.038-.102-.048-.106-.098-.05-.047.052-.027.142.06.27.138.202.354.343 1.023.675.573.283.874.407 1.373.563.428.136.765.213 1.157.271.251.036.357.04.854.032.565-.006.565-.006.885-.08.736-.165.892-.235 1.407-.624.272-.206.49-.412.68-.643a.582.582 0 0 1 .123-.124c.014 0 .018.044.01.124-.01.127-.168.573-.224.635a.721.721 0 0 0-.075.14c-.064.145-.298.44-.454.578-.287.252-.565.418-.856.51-.424.133-1.218.145-1.9.03a33.74 33.74 0 0 0-.409-.068 18.124 18.124 0 0 1-.459-.082c-.153-.028-.589-.096-.968-.15-.38-.054-.743-.11-.809-.122a4.624 4.624 0 0 1-.856-.291 5.689 5.689 0 0 1-.757-.494 3.44 3.44 0 0 1-.507-.623c-.194-.339-.282-.832-.188-1.05.098-.23.413-.337.8-.273Z" fill="#151515"/><path d="M9.316 9.043a.712.712 0 0 1-.06.106c-.056.088-.086.237-.086.443 0 .186.062.391.17.58.078.13.086.167.036.145l-.256-.09c-.325-.112-.849-.36-.849-.401 0-.036.076-.17.156-.27.118-.15.332-.313.553-.423.23-.114.244-.12.304-.122.034-.002.042.006.032.032ZM9.845 9.053c.056.06.088.152.072.204-.02.064-.11.151-.156.151-.06 0-.17-.072-.194-.127-.032-.07.03-.192.122-.236.09-.046.104-.046.156.008ZM11.137 8.96c.659.039.904.069 1.05.12.182.065.242.12.328.298.117.252.133.432.055.635-.071.188-.327.356-.595.394-.513.07-1.208.106-1.208.06a.8.8 0 0 1 .11-.142c.198-.222.28-.46.266-.775-.01-.223-.058-.353-.194-.505-.09-.102-.1-.124-.046-.108.018.006.124.016.234.022ZM14.383 9.07c.023.023.036.055.03.069-.005.016-.02.062-.03.104-.031.113-.133.23-.197.221-.07-.008-.132-.114-.114-.193.02-.092.17-.24.246-.242.012 0 .042.018.066.042ZM13.934 9.093c-.062.218-.08.33-.08.525-.002.278.046.45.178.627.05.068.088.13.082.138a1.075 1.075 0 0 1-.246 0c-.61-.038-.826-.06-.974-.098-.088-.024-.18-.046-.204-.052-.056-.014-.056-.012.002-.158.026-.064.054-.18.062-.257.018-.168.052-.222.206-.328.225-.152.84-.437.95-.441.028 0 .034.01.024.044ZM15.78 8.957c.678.114 1.043.268 1.383.59.08.075.094.137.04.185-.07.062-.46.285-.675.387-.28.134-.457.196-.757.26-.134.03-.261.058-.285.062-.078.018-.052-.032.074-.15a.71.71 0 0 0 .255-.541 1.07 1.07 0 0 0-.205-.695c-.108-.142-.106-.142.17-.098Z" fill="#fff"/><path d="M16.267 13.162c-.022.122-.078.204-.312.455-.323.356-.733.671-1.034.803-.188.082-.631.206-1.018.282-.118.024-.66.03-.909.012a9.284 9.284 0 0 1-.71-.086 2.25 2.25 0 0 0-.15-.028 2.469 2.469 0 0 1-.118-.024c.742.027 2.362 0 2.905-.324.43-.319 1.272-.985 1.38-1.225-.014.05-.028.105-.034.135ZM11.08 14.36c-.037 0-.546-.171-.682-.23a14.035 14.035 0 0 1-.374-.18l-.119-.059c-.615-.307-.954-.551-1.026-.739a.26.26 0 0 0-.038-.079l1.308.738 1.318.636a7.67 7.67 0 0 0-.388-.087Z" fill="#F52521"/><path fill-rule="evenodd" clip-rule="evenodd" d="M9.49 12.857c-.306-.352-.533-.51-.799-.551-.29-.048-.54 0-.689.125.043.553.384 1.761 1.398 2.169.578.153 1.815.35 2.154.39a4.6 4.6 0 0 1 .506.107c.464.114 1.086.267 1.683.212.687-.064 1.877-.766 2.386-1.108.056-.062.213-.508.223-.635.008-.08.005-.124-.01-.124a.582.582 0 0 0-.123.124c-.19.231-.408.437-.68.643-.514.389-.67.459-1.407.625-.32.073-.32.073-.884.08-.498.007-.603.003-.855-.033a6.957 6.957 0 0 1-1.156-.271c-.5-.156-.8-.28-1.374-.563-.669-.332-.884-.473-1.022-.675-.088-.128-.108-.218-.06-.27.029-.032.044-.044.06-.029l1.308.738 1.318.636.087.021c.167.041.343.083.462.108.742.027 2.362 0 2.905-.324.43-.319 1.272-.985 1.38-1.225l.012-.036c.032-.1.032-.104-.01-.172a.294.294 0 0 0-.092-.094c-.042-.024-.06-.022-.136.014-.118.058-.435.383-.657.673-.102.132-.208.26-.236.285-.074.062-.187.096-.53.152-.462.076-.921.1-1.45.074-.943-.048-2.175-.196-2.684-.323-.437-.11-.545-.188-1.028-.743Z" fill="#F52521"/><path d="M16.129 14.2a.722.722 0 0 0-.076.14c-.064.146-.298.442-.453.58-.288.251-.565.417-.857.508-.423.134-1.218.146-1.899.03l-.41-.067a18.122 18.122 0 0 1-.458-.082 35.334 35.334 0 0 0-.969-.15c-.38-.054-.743-.11-.809-.122a4.626 4.626 0 0 1-.856-.291 5.69 5.69 0 0 1-.757-.494 3.44 3.44 0 0 1-.507-.623c-.194-.339-.282-.832-.188-1.05a.396.396 0 0 1 .112-.148c.043.553.384 1.761 1.398 2.169.578.153 1.815.35 2.154.39a4.6 4.6 0 0 1 .506.107c.464.114 1.086.267 1.683.212.687-.064 1.877-.766 2.386-1.108Z" fill="#F52521"/><path d="M16.267 13.162c-.022.122-.078.204-.312.455-.323.356-.733.671-1.034.803-.188.082-.631.206-1.018.282-.118.024-.66.03-.909.012a9.284 9.284 0 0 1-.71-.086 2.25 2.25 0 0 0-.15-.028 2.469 2.469 0 0 1-.118-.024c.742.027 2.362 0 2.905-.324.43-.319 1.272-.985 1.38-1.225-.014.05-.028.105-.034.135ZM11.08 14.36c-.037 0-.546-.171-.682-.23a14.035 14.035 0 0 1-.374-.18l-.119-.059c-.615-.307-.954-.551-1.026-.739a.26.26 0 0 0-.038-.079l1.308.738 1.318.636a7.67 7.67 0 0 0-.388-.087Z" fill="#980005"/><path d="M16.129 14.2a.722.722 0 0 0-.076.14c-.064.146-.298.442-.453.58-.288.251-.565.417-.857.508-.423.134-1.218.146-1.899.03l-.41-.067a18.122 18.122 0 0 1-.458-.082 35.334 35.334 0 0 0-.969-.15c-.38-.054-.743-.11-.809-.122a4.626 4.626 0 0 1-.856-.291 5.69 5.69 0 0 1-.757-.494 3.44 3.44 0 0 1-.507-.623c-.194-.339-.282-.832-.188-1.05a.396.396 0 0 1 .112-.148c.043.553.384 1.761 1.398 2.169.578.153 1.815.35 2.154.39a4.6 4.6 0 0 1 .506.107c.464.114 1.086.267 1.683.212.687-.064 1.877-.766 2.386-1.108Z" fill="#980005"/><path d="M10.274 11.906c.333-.133.567-.267.899-.517.231-.173.295-.204.447-.204.387-.002.759-.211.906-.509.058-.117.062-.135.042-.213-.012-.048-.016-.092-.008-.1a.834.834 0 0 1 .234.046c.1.027.188.049.28.068-.074.22-.118.738.289 1.045l-.096-.001-.485-.012.006.052c.004.036.022.056.056.066.168.046 1.57.002 1.973-.064.131-.02.163-.014.163.032 0 .016.016.062.034.102.026.054.074.094.186.16.192.112.36.23.497.35l-1.016-.353c-.22-.08-.8-.04-1.178-.014-.132.009-.24.016-.3.016-.119 0-.487-.125-.842-.246-.329-.113-.646-.22-.741-.22-.111 0-.544.247-.922.464-.295.17-.557.32-.61.32-.096 0-.18-.09-.21-.135.07-.01.187-.05.396-.133ZM8.68 10.778c.671.192 1.32.306 2.017.36.446.031.47.036.47.066 0 .02-.104.091-.266.185-.87-.133-2.608-.452-2.6-.703v-.019c.072.024.19.058.38.111Z" fill="#F7C284"/><path fill-rule="evenodd" clip-rule="evenodd" d="m7.025 10.151 1.186.446c-.019.022-.02.034.09.07v.02c-.008.25 1.73.57 2.6.702a11.45 11.45 0 0 1-.79.41c-.17.08-.318.153-.328.163-.014.014-.01.032.008.054.016.02.04.029.088.023.03.045.113.135.21.135.052 0 .314-.15.609-.32.378-.217.81-.465.922-.465.095 0 .412.108.741.22.355.122.723.247.842.247.06 0 .168-.007.3-.016.379-.026.957-.066 1.178.014l1.016.354c.08.07.15.14.208.211.074.088.134.164.134.17a.668.668 0 0 1-.104.086c-.208.148-.486.443-.7.747-.14.2-.165.215-.384.261-.687.14-1.434.152-2.566.038-.725-.072-1.498-.185-1.767-.261-.362-.098-.49-.188-.813-.563-.375-.44-.533-.573-.819-.69-.345-.139-.942-.031-1.114.202-.14.19-.162.468-.064.835.15.57.543 1.088 1.106 1.462.486.323.999.505 1.684.593.784.102 1.112.148 1.617.231 1.04.172 1.521.208 2.182.16.148-.01.244-.01.244.002 0 .044-.168.106-.4.15-.24.044-.287.044-1.4.046h-.007c-.953 0-1.22-.006-1.508-.036-.191-.018-.623-.056-.958-.084a18.102 18.102 0 0 1-1.438-.162c-.938-.133-1.276-.2-1.56-.305a1.346 1.346 0 0 1-.416-.268c-.248-.25-.54-1.208-.54-1.765 0-.32.124-.759.38-1.342.114-.26.17-.355.285-.475.09-.094.098-.108.086-.17-.042-.201-.054-.479-.042-1.034l.002-.096Zm2.16.627v-.32l.095.029c.107.034.277.068.377.08.723.075.889.083 1.57.073.64-.008.698-.012.822-.052.074-.023.174-.065.22-.091.117-.068.175-.066.175.004 0 .074-.1.243-.187.321-.202.178-.362.224-.777.224-.685 0-1.51-.097-2.295-.268Zm3.178-1.955c-.047-.17-.166-.247-.545-.314v.37c.12.016.223.033.303.052.232.056.281.032.242-.108Zm1 2.7c-.407-.308-.363-.825-.29-1.046.217.046.454.077.939.13.265.027.962.023 1.238-.008.361-.044.485-.066.763-.14.315-.084.493-.15.678-.252.164-.092.186-.096.186-.04 0 .116-.132.292-.297.398l-.096.061-.244-.014-.245-.011.008.047c.004.04.02.05.096.058.065.008.091.02.095.046.016.082-.167.308-.31.382-.147.075-.786.245-1.17.311-.32.055-.837.083-1.351.077Z" fill="#F7C284"/><path d="M10.228 8.8c-.575.001-.645.005-.819.045-.223.052-.359.104-.549.212a1.562 1.562 0 0 0-.639.611c-.072.122-.103.16-.135.16-.024 0-.202-.042-.394-.09a3.335 3.335 0 0 0-.39-.086c-.023.004-.04.022-.04.044 0 .056.308.162.62.216.285.048.305.053.615.24.228.135.515.275.565.275.008 0 .058.013.123.032v.32a11.22 11.22 0 0 1-.429-.103c-.455-.117-.507-.126-.545-.08l-1.186-.445.008-.513.102-.094c.118-.108.577-.343.937-.481a17.097 17.097 0 0 1 1.377-.451c.28-.072.843-.168 1.108-.19a6.343 6.343 0 0 1 1.26.087v.37c-.393-.05-.981-.08-1.589-.08Z" fill="#F7C284"/><path fill-rule="evenodd" clip-rule="evenodd" d="M11.214 7.386c-.297-.176-1.132-.46-1.561-.533-.393-.066-.71-.046-.964.061a2.87 2.87 0 0 0-.192.094c.028.258.094.798.134.897.17.044.642.092 1.16-.074l.058.128c.615-.078 1.545-.117 1.829-.064.07.012.133.018.14.01.041-.04-.328-.36-.604-.52Zm-1.445.697c.274-.048.597-.07 1.072-.092.695-.032 1.016.012 1.228.17.1.073.18.181.204.273.01.046.006.056-.026.056a.418.418 0 0 1-.11-.03 3.992 3.992 0 0 0-1.114-.144c-.434-.01-.623 0-1.015.063-.008-.145-.163-.258-.24-.296Z" fill="#F7C284"/><path d="M9.52 8.01c-.288.06-.496.144-1.16.47-.56.273-.624.311-.614.347.006.024.024.042.04.042.04 0 .254-.096.845-.38.469-.225.755-.34 1.138-.406.076.038.231.15.24.296l-.13.021c-.79.132-2.269.663-2.704.968a.773.773 0 0 1-.128.08c-.016 0 0-1.068.018-1.316.014-.167.01-.163.278-.38.268-.218.8-.556 1.154-.744.028.258.094.798.134.897.17.044.642.092 1.16-.074l.058.128a4.545 4.545 0 0 0-.33.052Z" fill="#F7C284"/><path fill-rule="evenodd" clip-rule="evenodd" d="M14.755 7.543a2.565 2.565 0 0 0-.524-.143c-.171-.032-1.044-.056-1.257-.036-.06.005-.128.013-.202.022l.66.864c.532-.096 1.15-.192 1.488-.221.324-.028.863-.014 1.099.03.297.056.303.046.08-.168-.222-.21-.428-.332-.627-.37-.236-.045-.374-.04-.494.02l-.1.052-.123-.05Z" fill="#F7C284"/><path d="M12.508 8.452c-.081.032-.097.02-.133-.086a.55.55 0 0 0-.244-.31.802.802 0 0 1-.212-.225 4.585 4.585 0 0 0-.148-.208c-.037-.046-.043-.062-.021-.074.045-.025.615-.115 1.022-.163l.66.864c-.431.078-.805.157-.924.202Z" fill="#F7C284"/><path fill-rule="evenodd" clip-rule="evenodd" d="M16.618 8.452c0-.126-.478-.29-.905-.312a62.665 62.665 0 0 1-.313-.015 3.265 3.265 0 0 0-.51.025c-.252.025-.783.103-1.248.18l.068.19c.135-.02.316-.045.611-.082.126-.016.5-.034.829-.042.621-.012 1.018.008 1.256.064.17.04.212.038.212-.008Z" fill="#F7C284"/><path d="M13.433 8.57a6.018 6.018 0 0 0-.727.19c-.082.027-.164.05-.18.05-.02 0-.046-.039-.068-.102a.389.389 0 0 1-.03-.108c.016-.016.29-.092.496-.138.155-.034.423-.083.719-.132l.067.19a4.774 4.774 0 0 0-.277.05ZM16.31 8.568c.122.022.272.058.332.082.121.046.28.171.325.261.042.08.09.296.068.308-.01.008-.102-.028-.204-.078a3.686 3.686 0 0 0-.962-.304c-.32-.044-1.1-.06-1.37-.03a3.65 3.65 0 0 0-1.617.593c-.138.096-.16.106-.17.074a1.115 1.115 0 0 0-.186-.335.414.414 0 0 1-.082-.134c0-.02.002-.036.006-.036s.094-.032.2-.07c.364-.128.793-.215 1.582-.32.417-.055.662-.065 1.267-.06.488.007.627.015.811.049ZM15.438 11.593c.023.058.097.178.163.27.066.09.118.173.114.183-.004.012-.074-.028-.156-.088a3.307 3.307 0 0 0-.25-.165c-.129-.076-.259-.206-.233-.232.026-.026.266-.094.296-.082.012.004.042.056.066.114Z" fill="#F7C284"/><path d="M10.274 11.906c.333-.133.567-.267.898-.517.232-.174.296-.204.447-.204.388-.002.76-.211.907-.509.058-.117.062-.136.042-.213-.012-.048-.016-.092-.008-.1a.838.838 0 0 1 .234.046c.1.027.188.049.28.068-.074.22-.119.738.289 1.045l-.096-.001-.485-.012.006.052c.004.036.022.056.056.066.167.046 1.569.002 1.972-.064.132-.02.164-.014.164.032a.39.39 0 0 0 .034.102c.026.054.074.094.186.16.192.112.36.23.497.35l-1.016-.353c-.22-.08-.8-.04-1.178-.014a5.72 5.72 0 0 1-.3.016c-.12 0-.488-.125-.842-.246-.33-.113-.646-.22-.742-.22-.11 0-.543.247-.922.464-.294.17-.556.32-.609.32-.096 0-.18-.09-.21-.135.07-.01.187-.05.396-.133ZM8.68 10.778c.671.192 1.32.306 2.017.36.445.031.47.036.47.065 0 .022-.104.092-.267.186-.87-.133-2.607-.452-2.599-.703v-.019c.071.024.19.058.38.111ZM10.228 8.8c-.575.001-.645.005-.819.045-.223.052-.36.104-.549.212a1.562 1.562 0 0 0-.639.61c-.072.123-.104.16-.136.16-.024 0-.201-.041-.393-.09a3.333 3.333 0 0 0-.39-.085c-.023.004-.04.022-.04.044 0 .056.308.162.62.216.285.047.305.053.615.24.227.135.515.275.565.275.008 0 .058.013.123.032v.32a11.617 11.617 0 0 1-.429-.103c-.455-.117-.507-.126-.545-.08l-1.186-.445.008-.513.102-.094c.118-.108.577-.343.936-.481a17.098 17.098 0 0 1 1.378-.451 9 9 0 0 1 1.108-.19 6.344 6.344 0 0 1 1.26.087v.37c-.394-.05-.982-.08-1.59-.08Z" fill="#B7844C"/><path d="M9.519 8.01c-.288.06-.495.144-1.16.47-.56.273-.623.311-.613.347.006.024.024.042.04.042.04 0 .253-.096.844-.38.47-.225.756-.34 1.139-.406.076.038.231.15.24.296l-.13.021c-.79.132-2.269.663-2.704.968a.772.772 0 0 1-.128.08c-.016 0 0-1.068.018-1.316.014-.167.01-.163.278-.38.268-.218.8-.556 1.154-.744.028.258.093.798.133.897.171.044.643.092 1.16-.074l.058.128a4.543 4.543 0 0 0-.329.052ZM12.508 8.452c-.082.032-.098.02-.134-.086a.55.55 0 0 0-.243-.31.8.8 0 0 1-.212-.225 4.673 4.673 0 0 0-.148-.208c-.038-.046-.044-.062-.022-.074.046-.025.616-.115 1.022-.163l.662.864c-.432.078-.807.157-.925.202ZM13.433 8.57a6.013 6.013 0 0 0-.727.19c-.082.027-.164.05-.18.05-.02 0-.046-.039-.068-.102a.391.391 0 0 1-.03-.108c.016-.016.29-.092.495-.138.155-.034.424-.083.72-.132l.066.19a4.75 4.75 0 0 0-.276.05ZM16.31 8.568c.122.022.271.058.331.082.122.046.28.171.326.261.042.08.09.296.068.308-.01.008-.102-.028-.204-.078a3.685 3.685 0 0 0-.962-.304c-.32-.044-1.1-.06-1.37-.03a3.65 3.65 0 0 0-1.617.593c-.138.096-.16.106-.17.074a1.12 1.12 0 0 0-.186-.335.413.413 0 0 1-.082-.134c0-.02.002-.036.006-.036s.094-.032.2-.07c.363-.128.793-.215 1.581-.32.418-.055.663-.065 1.268-.06.487.007.627.015.81.049ZM6.98 12.388c-.187.236-.227.303-.312.505a.865.865 0 0 0-.074.41c-.003.237.032.357.175.638.143.278.53.719.63.719.03 0 .053-.01.053-.022 0-.012-.076-.114-.17-.224-.365-.44-.505-.748-.503-1.102.003-.277.093-.495.347-.818.151-.192.16-.208.11-.246-.072-.054-.125-.024-.255.14ZM12.067 12.603a1.276 1.276 0 0 0-.022.22c0 .12 0 .12.06.12s.06 0 .06-.116c0-.062.01-.148.018-.192.024-.096.01-.132-.048-.132-.04 0-.05.016-.068.1Z" fill="#B7844C"/><path d="M5.927 16.145c-.25-.061-.28-.066-.311-.038-.038.034-.092.04-.11.012-.014-.023-.509-.293-.898-.487-.352-.175-.474-.217-.633-.221-.116-.004-.12-.006-.164-.082a6.428 6.428 0 0 0-.22-.33c-.205-.293-.203-.29-.307-.559-.192-.501-.258-.835-.294-1.477-.022-.424.07-.915.308-1.63.138-.413.175-.507.201-.507.01 0 .09.09.18.2.362.445.52.56.927.677.301.086.53.083.566-.001-.25 1.255-.342 3.884 1.248 4.561-.165-.037-.33-.077-.493-.118ZM4.554 16.349c-.396-.186-.661-.38-.713-.517-.042-.11-.042-.13-.012-.162.044-.042.13-.04.321.008.224.058.314.094.905.386l.291.14c-.359-.096-.574.106-.636.219l-.156-.074Z" fill="#A45F01"/><path fill-rule="evenodd" clip-rule="evenodd" d="M2.251 19.931c.094-.892.518-2.79 1.468-3.245.962.262 3.003.766 3.474.687 1.236.206 2.546.214 3.986.02.633-.084.936-.181 1.302-.417.118-.074.178-.102.21-.092.111.028.563.531.854.957.142.205.338.607.457.932.112.31.24.813.254 1.002l.012.156H2.25Z" fill="#A45F01"/><path d="m1.692 19.931.078-.365c.142-.665.294-1.234.521-1.953.132-.421.434-.94.691-1.19.126-.122.56-.451.63-.48.013-.003.041.025.065.063.088.141.366.341.711.517.126.062.996.407 1.238.489.357.122.94.255 1.567.361-.47.079-2.512-.425-3.474-.687-.95.454-1.374 2.353-1.468 3.245h-.559ZM13.333 16.347c-.439.162-.609.246-.828.407l-1.019.12c0-.05-.036-.05-.545.006-.266.029-.717.045-1.172.048-.111 0-.08-.102-.05-.153.269-.004.44-.017.725-.049a22.156 22.156 0 0 0 1.651-.251c.232-.044.513-.092.63-.108l.608-.02Z" fill="#A45F01"/><path fill-rule="evenodd" clip-rule="evenodd" d="M18.183 11.83c-.13-.271-.433-.63-.633-.744-.12-.07-.173-.074-.283-.022-.122.056-.182.133-.206.285.45.152.598.613.615.825.376.862.157 1.87 0 2.266-.503 1.366-2.556 3.305-3.52 4.104.102.29.207.632.226.758.014.088.032.166.038.174.006.008.057-.04.111-.108.056-.066.446-.463.869-.883.423-.417.859-.854.968-.97.693-.73 1.554-1.869 1.823-2.406.27-.543.384-.982.384-1.486-.002-.565-.164-1.313-.392-1.793Z" fill="#A45F01"/><path d="M14.022 18.194a2.663 2.663 0 0 0-.162-.307.448.448 0 0 1-.073-.148c.004-.014.16-.112.345-.218a8.563 8.563 0 0 0 1.917-1.451 6.97 6.97 0 0 0 1.24-1.748c.231-.469.28-.669.261-1.094-.012-.317-.04-.41-.273-.914a5.815 5.815 0 0 1-.202-.47 1.677 1.677 0 0 1-.014-.495c.45.152.598.613.615.825.376.862.157 1.87 0 2.266-.503 1.366-2.556 3.305-3.52 4.104a5.39 5.39 0 0 0-.134-.35Z" fill="#A45F01"/><path fill-rule="evenodd" clip-rule="evenodd" d="M14.056 5.876c-.245-.21-.46-.297-.842-.341a1.234 1.234 0 0 0-.412.002c-.18.023-.386.076-.607.154.014.291.133 1 .495 1.51.29-.04.437-.056.643-.07.555-.039.935.025 1.378.23.136.065.168.073.23.059.05-.012.072-.03.076-.06.006-.048-.346-.757-.456-.919a3.886 3.886 0 0 0-.505-.565Z" fill="#A45F01"/><path d="M12.465 7.234c-.082.012-.29.058-.46.1a2.25 2.25 0 0 1-.355.074c-.052-.006-.07-.04-.194-.386a2.715 2.715 0 0 0-.3-.615c-.049-.076-.085-.143-.079-.155.016-.026.322-.204.525-.306.204-.102.404-.188.593-.255.014.291.133 1 .495 1.51l-.225.033Z" fill="#A45F01"/><path fill-rule="evenodd" clip-rule="evenodd" d="M9.3 5.32c.275.097.72.343 1.004.552.226.168.511.46.655.671.14.204.348.585.348.635 0 .032-.006.032-.074.002a7.62 7.62 0 0 0-1.444-.465c-.487-.1-.715-.1-1.01-.004a7.047 7.047 0 0 0-.348.122l-.22-1.353c.195-.104.362-.18.458-.205.134-.034.477-.01.631.044ZM5.881 9.278c-.008.123-.033.175-.08.165-.023-.004-.051-.086-.107-.305a4.278 4.278 0 0 0-.136-.453c-.07-.178-.174-.388-.198-.404a2.904 2.904 0 0 0-.393.118c-.206.072-.473.158-.595.192-.25.07-.323.1-.453.185-.284.186-.55.464-.621.651-.102.268.02.7.31 1.099.139.195.403.505.532.633.248.241.338.283.953.445.07.018.084.03.084.072 0 .009-.002.017-.005.025-.25 1.255-.342 3.884 1.248 4.561.657.15 1.313.267 1.792.322.663.075 1.511.08 2.166.012.438-.044 1.55-.21 2.075-.308.144-.028.351-.06.461-.072.11-.012.266-.036.345-.054.128-.03.148-.03.164-.006.012.016.02.036.02.042 0 .036-.291.106-.719.168l.61-.02c.558-.206.626-.234.658-.27.028-.032-.048-.034-1.172-.032-.962 0-1.294-.006-1.65-.033-1.602-.124-3.386-.376-3.863-.546-.367-.131-.597-.327-.757-.646-.255-.508-.43-1.33-.377-1.748.038-.275.168-.72.294-.998l.005-.014c.016-.037.041-.099.06-.15.06-.153.192-.409.236-.455.022-.022.072-.07.114-.106l.076-.066-.036-.074c-.032-.067-.034-.155-.02-1.291l-1.021-.64Zm5.797 7.837c.371-.088.571-.176.827-.362l-1.019.12c0 .026-.022.046-.064.06-.201.064-1.034.122-1.753.122a12.31 12.31 0 0 1-2.755-.312 7.092 7.092 0 0 1-.719-.203 5.151 5.151 0 0 1-.849-.336c-.359-.097-.574.105-.636.218.753.353 1.043.443 1.785.583.798.148 1.25.196 2.575.27.977.053 1.945-.006 2.608-.16Zm-1.91-.188c-.494.004-.99-.009-1.257-.038-.898-.1-1.913-.313-2.476-.525a39.653 39.653 0 0 1-.275-.102c-.18-.064-.054-.044.377.062 1.43.352 2.159.45 3.333.451l.25-.001c-.03.051-.062.154.048.153Z" fill="#A45F01"/><path d="M7.525 7.358c-.26.207-.417.357-.507.481l-.072.098-.014.381c-.008.21-.022.93-.03 1.6l-1.021-.64c.002-.034.003-.075.003-.121-.002-.234-.036-.364-.188-.723a2.26 2.26 0 0 1-.1-.254c0-.024.26-.537.36-.708.245-.422.67-.895 1.158-1.288a8.076 8.076 0 0 1 1.098-.704l.22 1.353a3.098 3.098 0 0 0-.907.525Z" fill="#A45F01"/><path d="M5.927 16.145c-.25-.061-.28-.066-.311-.038-.038.034-.092.04-.11.012-.014-.024-.509-.293-.898-.487-.352-.175-.474-.217-.633-.221-.116-.004-.12-.006-.164-.082a6.428 6.428 0 0 0-.22-.33c-.205-.293-.203-.29-.307-.559-.192-.501-.258-.835-.294-1.477-.022-.424.07-.915.308-1.63.138-.413.175-.507.201-.507.01 0 .09.09.18.2.362.445.52.56.927.677.301.086.53.083.566-.001-.25 1.255-.342 3.884 1.248 4.561-.165-.037-.33-.077-.493-.118ZM4.554 16.349c-.396-.186-.661-.38-.713-.517-.042-.11-.042-.13-.012-.162.044-.042.13-.04.321.008.224.058.314.094.905.386l.291.14c-.359-.096-.574.106-.636.219l-.156-.074Z" fill="#7A3F03"/><path d="m1.692 19.931.078-.365c.142-.665.294-1.234.521-1.953.132-.421.434-.94.691-1.19.126-.122.56-.451.63-.48.013-.003.041.025.065.063.088.141.366.341.711.517.126.062.996.407 1.238.489.357.122.94.255 1.567.361-.47.079-2.512-.425-3.474-.687-.95.454-1.374 2.353-1.468 3.245h-.559ZM13.333 16.347c-.439.162-.609.246-.828.407l-1.019.12c0-.05-.036-.05-.545.006-.266.029-.717.045-1.172.048-.111 0-.08-.102-.05-.153.269-.004.44-.017.725-.049a22.156 22.156 0 0 0 1.651-.251c.232-.044.513-.092.63-.108l.608-.02ZM14.022 18.194a2.663 2.663 0 0 0-.162-.307.448.448 0 0 1-.073-.148c.004-.014.16-.112.345-.218a8.566 8.566 0 0 0 1.917-1.451 6.968 6.968 0 0 0 1.24-1.748c.231-.469.28-.669.261-1.094-.012-.317-.04-.41-.273-.914a5.815 5.815 0 0 1-.202-.47 1.677 1.677 0 0 1-.014-.495c.45.152.598.613.615.825.376.862.157 1.87 0 2.266-.503 1.366-2.556 3.305-3.52 4.103a5.407 5.407 0 0 0-.134-.349ZM12.465 7.234c-.082.012-.29.058-.46.1a2.25 2.25 0 0 1-.355.074c-.052-.006-.07-.04-.194-.386a2.715 2.715 0 0 0-.3-.615c-.049-.076-.085-.143-.079-.155.016-.026.322-.204.525-.306.204-.102.404-.188.593-.255.014.291.133 1 .495 1.51l-.225.033ZM7.525 7.358c-.26.207-.417.357-.507.48l-.072.099-.014.381c-.008.21-.022.93-.03 1.6l-1.021-.64c.002-.034.003-.075.003-.121-.002-.234-.036-.364-.188-.723a2.26 2.26 0 0 1-.1-.254c0-.024.26-.537.36-.708.245-.422.67-.895 1.158-1.288a8.076 8.076 0 0 1 1.098-.704l.22 1.353a3.098 3.098 0 0 0-.907.525ZM4.344 9.263c.397-.092.505-.088.613.026.04.04.082.11.096.153.054.18.016.751-.078 1.144a.697.697 0 0 0-.027.213c-.287-.356-.534-1.132-.637-1.534.007.003.017.002.033-.002Z" fill="#7A3F03"/><path d="M4.492 9.039c-.13.048-.194.106-.194.174 0 .031.002.047.013.052.007.003.017.002.033-.002.397-.092.505-.088.613.026.04.04.082.11.096.153.054.18.016.751-.078 1.144a.697.697 0 0 0-.027.213c.004.032.018.047.04.047.047 0 .164-.276.228-.53.078-.3.094-.546.052-.784-.05-.281-.136-.425-.295-.493a1.031 1.031 0 0 0-.481 0ZM13.669 11.778c-.054.02-.02.068.12.172.078.06.2.158.27.222.143.13.183.14.183.05 0-.134-.46-.49-.573-.444ZM7.097 12.387a1.84 1.84 0 0 0-.235.506 1.117 1.117 0 0 0-.056.409c-.002.238.024.357.132.639.107.277.399.719.475.719.022 0 .04-.01.04-.022a1.6 1.6 0 0 0-.128-.224c-.276-.441-.381-.749-.38-1.102.003-.277.07-.495.262-.819.114-.191.12-.207.082-.245-.054-.054-.094-.024-.192.14ZM13.11 12.457c-.017.038.081.218.113.21.014-.002.016.004.01.016-.008.012.01.058.038.102.038.054.066.078.102.078.07 0 .074-.022.018-.142-.09-.194-.166-.297-.22-.297-.028 0-.054.014-.062.033ZM12.227 12.603a1.287 1.287 0 0 0-.022.22c0 .12 0 .12.06.12s.06 0 .06-.116c0-.062.01-.148.018-.192.024-.096.01-.132-.048-.132-.04 0-.05.016-.068.1Z" fill="#151515"/></g></svg>