<svg xmlns="http://www.w3.org/2000/svg" width="20" height="20" fill="none"><g clip-path="url(#a)"><path fill="#2775CA" d="M10 20c5.542 0 10-4.458 10-10S15.542 0 10 0 0 4.458 0 10s4.458 10 10 10Z"/><path fill="#fff" d="M12.75 11.583c0-1.458-.875-1.958-2.625-2.166-1.25-.167-1.5-.5-1.5-1.084 0-.583.417-.958 1.25-.958.75 0 1.167.25 1.375.875a.313.313 0 0 0 .292.208h.666a.285.285 0 0 0 .292-.291v-.042a2.082 2.082 0 0 0-1.875-1.708v-1c0-.167-.125-.292-.333-.334h-.625c-.167 0-.292.125-.334.334v.958c-1.25.167-2.041 1-2.041 2.042 0 1.375.833 1.916 2.583 2.125 1.167.208 1.542.458 1.542 1.125 0 .666-.584 1.125-1.375 1.125-1.084 0-1.459-.459-1.584-1.084-.041-.166-.166-.25-.291-.25h-.709a.285.285 0 0 0-.291.292v.042c.166 1.041.833 1.791 2.208 2v1c0 .166.125.291.333.333h.625c.167 0 .292-.125.334-.333v-1c1.25-.209 2.083-1.084 2.083-2.209Z"/><path fill="#fff" d="M7.875 15.958c-3.25-1.166-4.917-4.791-3.708-8 .625-1.75 2-3.083 3.708-3.708.167-.083.25-.208.25-.417V3.25c0-.167-.083-.292-.25-.333-.042 0-.125 0-.167.041-3.958 1.25-6.125 5.459-4.875 9.417a7.496 7.496 0 0 0 4.875 4.875c.167.083.334 0 .375-.167.042-.041.042-.083.042-.166v-.584c0-.125-.125-.291-.25-.375Zm4.417-13c-.167-.083-.334 0-.375.167-.042.042-.042.083-.042.167v.583c0 .167.125.333.25.417 3.25 1.166 4.917 4.791 3.708 8A6.164 6.164 0 0 1 12.125 16c-.167.083-.25.208-.25.417V17c0 .167.083.292.25.333.042 0 .125 0 .167-.041 3.958-1.25 6.125-5.459 4.875-9.417a7.557 7.557 0 0 0-4.875-4.917Z"/></g><g clip-path="url(#b)"><path fill="#23AF91" d="M15 20a5 5 0 1 0 0-10 5 5 0 0 0 0 10Z"/><path fill="#fff" fill-rule="evenodd" d="m14.219 15 1.625 1.656 1.031-1.031c.188-.188.469-.188.625 0a.49.49 0 0 1 0 .688l-1.344 1.375a.453.453 0 0 1-.656 0l-1.938-2v1.187a.48.48 0 0 1-.468.469.48.48 0 0 1-.469-.469v-3.75a.48.48 0 0 1 .469-.469.48.48 0 0 1 .469.469v1.188l1.937-2a.453.453 0 0 1 .656 0l1.344 1.374a.49.49 0 0 1 0 .688c-.188.188-.469.188-.625 0l-1.031-1.063L14.219 15Zm1.625-.469a.48.48 0 0 1 .469.469.48.48 0 0 1-.47.469.48.48 0 0 1-.468-.469.48.48 0 0 1 .469-.469Z" clip-rule="evenodd"/></g><defs><clipPath id="a"><path fill="#fff" d="M0 0h20v20H0z"/></clipPath><clipPath id="b"><path fill="#fff" d="M10 10h10v10H10z"/></clipPath></defs></svg>