<svg xmlns="http://www.w3.org/2000/svg" width="20" height="20" fill="none"><path fill="#009393" fill-rule="evenodd" d="M4.356 2h11.52c.275 0 .528.147.665.386l3.357 5.84a.77.77 0 0 1-.126.931l-9.238 9.14a.767.767 0 0 1-1.08 0L.228 9.169a.77.77 0 0 1-.115-.95l3.588-5.852A.768.768 0 0 1 4.356 2Zm10.032 2.608v1.638h-3.281v1.137c2.304.121 4.034.62 4.046 1.217v1.247c-.013.597-1.742 1.096-4.046 1.217v2.789h-2.18v-2.789c-2.304-.121-4.033-.62-4.046-1.217V8.6c.013-.597 1.742-1.096 4.047-1.217V6.246H5.646V4.608h8.742Zm-4.37 5.6c2.459 0 4.514-.421 5.018-.984-.427-.478-1.97-.854-3.93-.957v1.19a20.745 20.745 0 0 1-2.178 0v-1.19c-1.96.103-3.503.479-3.93.957.504.563 2.56.984 5.02.984Z" clip-rule="evenodd"/><path fill="#fff" fill-rule="evenodd" d="M14.388 4.608v1.638h-3.281v1.137c2.304.121 4.034.62 4.046 1.217v1.247c-.013.597-1.742 1.096-4.046 1.217v2.789h-2.18v-2.789c-2.304-.121-4.033-.62-4.046-1.217V8.6c.013-.597 1.742-1.096 4.047-1.217V6.246H5.646V4.608h8.742Zm.648 4.616c-.503.563-2.56.984-5.019.984-2.46 0-4.515-.421-5.018-.984.426-.478 1.97-.854 3.929-.957v1.19a20.759 20.759 0 0 0 2.179 0v-1.19c1.959.103 3.502.479 3.929.957Z" clip-rule="evenodd"/><circle cx="15" cy="15" r="5" fill="#2C7DF7"/><path fill="#fff" d="M15.519 18.328c-.476 0-.822-.114-1.04-.343a1.06 1.06 0 0 1-.327-.74.492.492 0 0 1 .057-.244.423.423 0 0 1 .156-.156.545.545 0 0 1 .486 0 .416.416 0 0 1 .155.156.48.48 0 0 1 .06.244.467.467 0 0 1-.084.287.388.388 0 0 1-.198.144.54.54 0 0 0 .312.195c.139.04.282.06.426.061a.949.949 0 0 0 .535-.16.936.936 0 0 0 .35-.473c.08-.228.118-.468.114-.709a1.942 1.942 0 0 0-.125-.736.909.909 0 0 0-.88-.606.988.988 0 0 0-.45.152l-.335.168V15.4l1.501-2.013h-2.08v2.09c-.006.15.034.3.114.427a.395.395 0 0 0 .35.167.584.584 0 0 0 .345-.121c.112-.083.21-.183.29-.298a.104.104 0 0 1 .037-.05.077.077 0 0 1 .05-.018c.036.003.07.017.098.041.034.039.053.09.053.142a.837.837 0 0 1-.019.104 1.007 1.007 0 0 1-.357.443.884.884 0 0 1-.5.151c-.45 0-.763-.088-.936-.266a.998.998 0 0 1-.258-.728v-2.084H12.36v-.388h1.063v-.885l-.244-.244v-.198h.707l.265.137v1.19l2.748-.009.273.275-1.685 1.693c.102-.04.21-.067.319-.077.216.01.427.07.615.176.219.104.403.268.531.473.115.174.196.368.24.572.035.16.054.324.056.488.002.314-.07.624-.208.906-.13.273-.35.494-.624.624-.28.138-.587.21-.898.208Z"/></svg>