<svg xmlns="http://www.w3.org/2000/svg" width="20" height="20" fill="none"><path fill="#50AF95" fill-rule="evenodd" d="M3.662 1.386.015 9.046a.148.148 0 0 0 .032.174l9.849 9.437a.15.15 0 0 0 .208 0l9.849-9.437a.149.149 0 0 0 .032-.173l-3.647-7.66a.148.148 0 0 0-.134-.086H3.798a.147.147 0 0 0-.136.085Z" clip-rule="evenodd"/><path fill="#fff" fill-rule="evenodd" d="M11.265 9.833c-.07.005-.436.027-1.25.027-.649 0-1.109-.02-1.27-.027-2.505-.11-4.375-.546-4.375-1.068s1.87-.958 4.375-1.07V9.4c.163.012.632.04 1.28.04.778 0 1.168-.033 1.238-.04V7.696c2.5.112 4.365.548 4.365 1.069 0 .52-1.865.957-4.365 1.067l.002.001Zm0-2.313V5.996h3.489V3.671H5.256v2.325h3.488V7.52c-2.835.13-4.967.691-4.967 1.364 0 .673 2.132 1.234 4.967 1.365v4.885h2.52v-4.887c2.829-.13 4.957-.69 4.957-1.363S14.095 7.65 11.265 7.52Z" clip-rule="evenodd"/><g clip-path="url(#a)"><circle cx="15" cy="15" r="5" fill="#E6007A"/><path fill="#fff" d="M15 12.949c.702 0 1.271-.332 1.271-.74 0-.409-.569-.74-1.271-.74s-1.271.331-1.271.74c0 .408.569.74 1.271.74Zm0 5.571c.702 0 1.271-.33 1.271-.74 0-.408-.569-.739-1.271-.739s-1.271.331-1.271.74c0 .408.569.74 1.271.74Zm-1.772-4.548c.351-.608.349-1.267-.005-1.471-.354-.204-.925.123-1.276.731s-.35 1.267.005 1.47c.354.205.925-.122 1.276-.73Zm4.825 2.786c.351-.608.35-1.267-.005-1.471-.353-.205-.925.123-1.276.731s-.349 1.267.005 1.47c.354.205.925-.122 1.276-.73Zm-4.83.731c.354-.204.356-.863.005-1.471-.351-.608-.922-.936-1.276-.731-.354.204-.356.863-.005 1.47.35.609.922.936 1.276.732Zm4.825-2.786c.354-.204.356-.863.005-1.471-.35-.608-.922-.935-1.276-.731-.354.204-.356.863-.005 1.47.351.609.923.936 1.276.732Z"/></g><defs><clipPath id="a"><path fill="#fff" d="M10 10h10v10H10z"/></clipPath></defs></svg>