<svg xmlns="http://www.w3.org/2000/svg" width="20" height="20" fill="none"><g clip-path="url(#a)"><circle cx="10" cy="10" r="10" fill="#131419"/><path fill="#F0B90B" d="m10 3 1.735 1.77-4.368 4.355-1.734-1.73L10 3Zm2.633 2.625 1.734 1.77-7 6.98-1.734-1.73 7-7.02ZM4.734 8.25l1.735 1.77-1.735 1.73L3 10.02l1.734-1.77Zm10.532 0L17 10.02 10 17l-1.734-1.73 7-7.02Z"/><g clip-path="url(#b)"><path fill="#8247E5" d="M15 20a5 5 0 1 0 0-10 5 5 0 0 0 0 10Z"/><path fill="#fff" fill-rule="evenodd" d="M13.407 12.275c-.033.013-.38.2-.77.418-.503.28-.726.41-.761.441a.413.413 0 0 0-.08.103l-.028.057v1.768l.028.056c.054.107.072.118.854.553.4.222.746.41.77.417.066.02.188.017.253-.005.051-.018.535-.286 1.244-.687.786-.446 1.367-.767 1.415-.783a.36.36 0 0 1 .141-.014c.112.005.112.005.585.269.394.22.44.253.494.352a.5.5 0 0 1 .04.114c.014.079.014.87 0 .949a.374.374 0 0 1-.11.207c-.065.06-.842.507-.917.526a.456.456 0 0 1-.223-.002 6.598 6.598 0 0 1-.452-.237c-.441-.244-.485-.275-.54-.387l-.028-.059-.005-.314-.005-.315-.314.178-.315.178v.28c0 .17.004.3.01.332a.35.35 0 0 0 .136.217c.083.061 1.476.83 1.527.842.076.02.177.016.247-.009.033-.012.38-.2.77-.417.776-.431.784-.437.841-.553l.028-.058v-1.757l-.028-.057c-.054-.106-.073-.118-.858-.558a21.75 21.75 0 0 0-.777-.422.488.488 0 0 0-.246.001c-.03.01-.267.14-.527.289-.26.148-.63.356-.82.46-.191.106-.556.31-.81.456a8.446 8.446 0 0 1-.512.28.5.5 0 0 1-.252-.004c-.058-.02-.798-.433-.87-.486a.458.458 0 0 1-.14-.201c-.022-.076-.021-.956.001-1.034a.41.41 0 0 1 .11-.177c.05-.046.838-.482.906-.501a.516.516 0 0 1 .24.005c.019.005.216.111.439.235.371.206.409.23.464.287.102.106.105.12.11.48l.006.304.31-.176.31-.176-.002-.318-.003-.319-.032-.065a.37.37 0 0 0-.08-.107 40.668 40.668 0 0 0-1.491-.854.468.468 0 0 0-.13-.02.313.313 0 0 0-.153.018Z" clip-rule="evenodd"/></g></g><defs><clipPath id="a"><path fill="#fff" d="M0 0h20v20H0z"/></clipPath><clipPath id="b"><path fill="#fff" d="M10 10h10v10H10z"/></clipPath></defs></svg>