<svg xmlns="http://www.w3.org/2000/svg" width="20" height="20" fill="none"><g clip-path="url(#a)"><path fill="#2775CA" d="M10 20c5.542 0 10-4.458 10-10S15.542 0 10 0 0 4.458 0 10s4.458 10 10 10Z"/><path fill="#fff" d="M12.75 11.583c0-1.458-.875-1.958-2.625-2.166-1.25-.167-1.5-.5-1.5-1.084 0-.583.417-.958 1.25-.958.75 0 1.167.25 1.375.875a.313.313 0 0 0 .292.208h.666a.285.285 0 0 0 .292-.291v-.042a2.082 2.082 0 0 0-1.875-1.708v-1c0-.167-.125-.292-.333-.334h-.625c-.167 0-.292.125-.334.334v.958c-1.25.167-2.041 1-2.041 2.042 0 1.375.833 1.916 2.583 2.125 1.167.208 1.542.458 1.542 1.125 0 .666-.584 1.125-1.375 1.125-1.084 0-1.459-.459-1.584-1.084-.041-.166-.166-.25-.291-.25h-.709a.285.285 0 0 0-.291.292v.042c.166 1.041.833 1.791 2.208 2v1c0 .166.125.291.333.333h.625c.167 0 .292-.125.334-.333v-1c1.25-.209 2.083-1.084 2.083-2.209Z"/><path fill="#fff" d="M7.875 15.958c-3.25-1.166-4.917-4.791-3.708-8 .625-1.75 2-3.083 3.708-3.708.167-.083.25-.208.25-.417V3.25c0-.167-.083-.292-.25-.333-.042 0-.125 0-.167.041-3.958 1.25-6.125 5.459-4.875 9.417a7.496 7.496 0 0 0 4.875 4.875c.167.083.334 0 .375-.167.042-.041.042-.083.042-.166v-.584c0-.125-.125-.291-.25-.375Zm4.417-13c-.167-.083-.334 0-.375.167-.042.042-.042.083-.042.167v.583c0 .167.125.333.25.417 3.25 1.166 4.917 4.791 3.708 8A6.164 6.164 0 0 1 12.125 16c-.167.083-.25.208-.25.417V17c0 .167.083.292.25.333.042 0 .125 0 .167-.041 3.958-1.25 6.125-5.459 4.875-9.417a7.557 7.557 0 0 0-4.875-4.917Z"/></g><circle cx="15" cy="15" r="5" fill="#fff"/><path fill="#000" d="M12.505 15.34a2.675 2.675 0 0 1 .313-1.633c.219-.394.533-.722.911-.952a2.454 2.454 0 0 1 2.502-.027l.576-.303a2.991 2.991 0 0 0-3.205-.26 3.12 3.12 0 0 0-1.226 1.173 3.265 3.265 0 0 0-.444 1.905.596.596 0 0 1-.07.327.569.569 0 0 1-.234.232l-.264.14v.65l7.272-3.833v-.65l-6.13 3.23Zm6.131-1.93-5.74 3.023-1.532.807v.65l6.132-3.232a2.675 2.675 0 0 1-.313 1.637 2.567 2.567 0 0 1-.912.953 2.454 2.454 0 0 1-2.505.024l-.03.016-.544.287a2.99 2.99 0 0 0 3.205.26 3.12 3.12 0 0 0 1.226-1.172 3.264 3.264 0 0 0 .445-1.907.594.594 0 0 1 .07-.327c.054-.1.135-.18.234-.232l.264-.14v-.647Z"/><defs><clipPath id="a"><path fill="#fff" d="M0 0h20v20H0z"/></clipPath></defs></svg>