<svg xmlns="http://www.w3.org/2000/svg" width="20" height="20" fill="none"><path fill="#009393" fill-rule="evenodd" d="M4.356 2h11.52c.275 0 .528.147.665.386l3.357 5.84a.77.77 0 0 1-.126.931l-9.238 9.14a.767.767 0 0 1-1.08 0L.228 9.169a.77.77 0 0 1-.115-.95l3.588-5.852A.768.768 0 0 1 4.356 2Zm10.032 2.608v1.638h-3.281v1.137c2.304.121 4.034.62 4.046 1.217v1.247c-.013.597-1.742 1.096-4.046 1.217v2.789h-2.18v-2.789c-2.304-.121-4.033-.62-4.046-1.217V8.6c.013-.597 1.742-1.096 4.047-1.217V6.246H5.646V4.608h8.742Zm-4.37 5.6c2.459 0 4.514-.421 5.018-.984-.427-.478-1.97-.854-3.93-.957v1.19a20.745 20.745 0 0 1-2.178 0v-1.19c-1.96.103-3.503.479-3.93.957.504.563 2.56.984 5.02.984Z" clip-rule="evenodd"/><path fill="#fff" fill-rule="evenodd" d="M14.388 4.608v1.638h-3.281v1.137c2.304.121 4.034.62 4.046 1.217v1.247c-.013.597-1.742 1.096-4.046 1.217v2.789h-2.18v-2.789c-2.304-.121-4.033-.62-4.046-1.217V8.6c.013-.597 1.742-1.096 4.047-1.217V6.246H5.646V4.608h8.742Zm.648 4.616c-.503.563-2.56.984-5.019.984-2.46 0-4.515-.421-5.018-.984.426-.478 1.97-.854 3.929-.957v1.19a20.759 20.759 0 0 0 2.179 0v-1.19c1.959.103 3.502.479 3.929.957Z" clip-rule="evenodd"/><g clip-path="url(#a)"><circle cx="15" cy="15" r="5" fill="#6CE89E"/><path fill="#000" d="m16.513 12.771-1.045 1.552a.111.111 0 0 0 .165.146l1.029-.893a.041.041 0 0 1 .045-.007.042.042 0 0 1 .024.039v2.794a.042.042 0 0 1-.027.039.042.042 0 0 1-.046-.012l-3.11-3.723a.533.533 0 0 0-.407-.189h-.108a.533.533 0 0 0-.533.533v3.935a.533.533 0 0 0 .533.532.533.533 0 0 0 .454-.253l1.045-1.552a.11.11 0 0 0-.092-.173.111.111 0 0 0-.073.027l-1.029.892a.041.041 0 0 1-.045.007.042.042 0 0 1-.024-.038v-2.795a.042.042 0 0 1 .073-.026l3.11 3.723a.533.533 0 0 0 .406.188h.109a.533.533 0 0 0 .533-.532V13.05a.532.532 0 0 0-.987-.279Z"/></g><defs><clipPath id="a"><path fill="#fff" d="M10 10h10v10H10z"/></clipPath></defs></svg>