<svg xmlns="http://www.w3.org/2000/svg" width="20" height="20" fill="none"><path fill="#009393" fill-rule="evenodd" d="M4.356 2h11.52c.275 0 .528.147.665.386l3.357 5.84a.77.77 0 0 1-.126.931l-9.238 9.14a.767.767 0 0 1-1.08 0L.228 9.169a.77.77 0 0 1-.115-.95l3.588-5.852A.768.768 0 0 1 4.356 2Zm10.032 2.608v1.638h-3.281v1.137c2.304.121 4.034.62 4.046 1.217v1.247c-.013.597-1.742 1.096-4.046 1.217v2.789h-2.18v-2.789c-2.304-.121-4.033-.62-4.046-1.217V8.6c.013-.597 1.742-1.096 4.047-1.217V6.246H5.646V4.608h8.742Zm-4.37 5.6c2.459 0 4.514-.421 5.018-.984-.427-.478-1.97-.854-3.93-.957v1.19a20.745 20.745 0 0 1-2.178 0v-1.19c-1.96.103-3.503.479-3.93.957.504.563 2.56.984 5.02.984Z" clip-rule="evenodd"/><path fill="#fff" fill-rule="evenodd" d="M14.388 4.608v1.638h-3.281v1.137c2.304.121 4.034.62 4.046 1.217v1.247c-.013.597-1.742 1.096-4.046 1.217v2.789h-2.18v-2.789c-2.304-.121-4.033-.62-4.046-1.217V8.6c.013-.597 1.742-1.096 4.047-1.217V6.246H5.646V4.608h8.742Zm.648 4.616c-.503.563-2.56.984-5.019.984-2.46 0-4.515-.421-5.018-.984.426-.478 1.97-.854 3.929-.957v1.19a20.759 20.759 0 0 0 2.179 0v-1.19c1.959.103 3.502.479 3.929.957Z" clip-rule="evenodd"/><circle cx="15" cy="15" r="5" fill="#FF564F"/><path fill="#fff" d="M12.654 12.11h1.04v5.78h-1.04v-5.78Zm5.041 5.78h-1.289L14.194 15l2.212-2.89h1.29L15.513 15l2.181 2.89Z"/></svg>